<svg xmlns="http://www.w3.org/2000/svg" xmlns:xlink="http://www.w3.org/1999/xlink" width="500" zoomAndPan="magnify" viewBox="0 0 375 374.999991" height="500" preserveAspectRatio="xMidYMid meet" version="1.0"><defs><g/><clipPath id="93e31b1411"><path d="M 20.160156 170.632812 L 354.839844 170.632812 L 354.839844 203.28125 L 20.160156 203.28125 Z M 20.160156 170.632812 " clip-rule="nonzero"/></clipPath></defs><rect x="-37.5" width="450" fill="#ffffff" y="-37.499999" height="449.999989" fill-opacity="1"/><rect x="-37.5" width="450" fill="#ffffff" y="-37.499999" height="449.999989" fill-opacity="1"/><rect x="-37.5" width="450" fill="#d5e0ff" y="-37.499999" height="449.999989" fill-opacity="1"/><g fill="#fbfaf9" fill-opacity="1"><g transform="translate(87.976092, 258.374983)"><g><path d="M 37.015625 -29.921875 C 33.703125 -29.921875 31.394531 -31.191406 30.09375 -33.734375 C 28.800781 -36.273438 28.15625 -39.785156 28.15625 -44.265625 C 28.15625 -45.921875 28.273438 -48.398438 28.515625 -51.703125 L 30.109375 -75.078125 L 33.46875 -117.75 L 33.46875 -118.109375 C 33.46875 -119.054688 33.113281 -119.882812 32.40625 -120.59375 C 31.695312 -121.300781 30.867188 -121.65625 29.921875 -121.65625 L 8.140625 -121.65625 C 6.015625 -121.65625 4.835938 -120.59375 4.609375 -118.46875 L 0.171875 -76.328125 C -0.890625 -65.578125 -1.476562 -56.367188 -1.59375 -48.703125 L -1.59375 -43.03125 C -1.59375 -36.65625 -1.359375 -31.929688 -0.890625 -28.859375 C 0.171875 -19.066406 3.300781 -11.804688 8.5 -7.078125 C 13.457031 -2.359375 22.132812 0 34.53125 0 C 50.226562 0 62.210938 -4.660156 70.484375 -13.984375 C 75.671875 -20.003906 79.269531 -27.796875 81.28125 -37.359375 C 82.8125 -45.503906 83.578125 -54.242188 83.578125 -63.578125 L 83.578125 -75.265625 L 85.171875 -117.9375 C 85.171875 -118.875 84.816406 -119.726562 84.109375 -120.5 C 83.398438 -121.269531 82.578125 -121.65625 81.640625 -121.65625 L 59.859375 -121.65625 C 57.609375 -121.65625 56.425781 -120.53125 56.3125 -118.28125 L 54.1875 -76.140625 L 54.1875 -75.96875 C 53.71875 -66.40625 53.304688 -59.203125 52.953125 -54.359375 L 52.421875 -47.640625 C 52.421875 -47.160156 52.242188 -45.859375 51.890625 -43.734375 C 51.179688 -39.367188 49.789062 -35.972656 47.71875 -33.546875 C 45.65625 -31.128906 42.085938 -29.921875 37.015625 -29.921875 Z M 80.921875 -112.4375 C 80.566406 -110.664062 80.390625 -109.367188 80.390625 -108.546875 C 80.390625 -108.546875 80.421875 -108.515625 80.484375 -108.453125 C 80.546875 -108.398438 80.578125 -108.375 80.578125 -108.375 C 80.578125 -108.25 80.632812 -108.1875 80.75 -108.1875 L 78.796875 -108.1875 L 78.625 -110.3125 L 78.625 -112.4375 C 78.625 -113.5 78.566406 -114.148438 78.453125 -114.390625 L 78.453125 -115.453125 C 78.453125 -115.804688 78.566406 -116.335938 78.796875 -117.046875 C 79.035156 -117.753906 79.390625 -118.109375 79.859375 -118.109375 C 80.804688 -118.109375 81.25 -117.722656 81.1875 -116.953125 C 81.132812 -116.191406 81.109375 -115.75 81.109375 -115.625 L 81.109375 -114.921875 Z M 5.3125 -95.09375 C 5.3125 -95.445312 5.488281 -95.800781 5.84375 -96.15625 L 6.203125 -97.21875 L 6.015625 -98.28125 L 5.84375 -99.515625 L 5.484375 -100.40625 L 5.140625 -101.28125 L 5.484375 -102.53125 L 6.015625 -104.46875 C 6.015625 -104.59375 5.898438 -104.769531 5.671875 -105 L 5.484375 -105.53125 C 5.484375 -105.65625 5.601562 -105.832031 5.84375 -106.0625 L 6.015625 -108.375 C 6.253906 -108.601562 6.375 -108.78125 6.375 -108.90625 C 6.488281 -109.019531 6.488281 -109.3125 6.375 -109.78125 C 6.84375 -110.257812 7.078125 -110.675781 7.078125 -111.03125 L 7.078125 -112.265625 C 6.960938 -112.734375 6.816406 -113.113281 6.640625 -113.40625 C 6.460938 -113.707031 6.195312 -113.976562 5.84375 -114.21875 C 6.4375 -114.21875 6.734375 -114.273438 6.734375 -114.390625 C 6.960938 -114.628906 7.195312 -114.75 7.4375 -114.75 L 8.328125 -114.75 L 7.265625 -92.25 C 6.910156 -91.664062 6.492188 -91.253906 6.015625 -91.015625 L 6.015625 -90.65625 C 6.253906 -90.65625 6.375 -90.597656 6.375 -90.484375 C 6.613281 -90.484375 6.847656 -90.601562 7.078125 -90.84375 C 7.078125 -90.132812 6.898438 -89.425781 6.546875 -88.71875 C 6.191406 -88.238281 5.898438 -88 5.671875 -88 C 5.671875 -88.238281 5.550781 -88.359375 5.3125 -88.359375 L 5.140625 -88.71875 Z M 6.375 -73.140625 C 5.550781 -73.253906 4.84375 -73.609375 4.25 -74.203125 L 4.421875 -74.90625 L 5.140625 -75.078125 L 6.375 -75.265625 Z M 62.328125 -74.015625 C 62.210938 -73.898438 62.125 -73.78125 62.0625 -73.65625 C 62.007812 -73.539062 61.921875 -73.484375 61.796875 -73.484375 C 61.796875 -73.484375 61.765625 -73.453125 61.703125 -73.390625 C 61.648438 -73.335938 61.625 -73.3125 61.625 -73.3125 C 61.382812 -73.3125 61.265625 -73.429688 61.265625 -73.671875 L 61.265625 -74.203125 Z M 6.015625 -67.828125 C 6.015625 -66.765625 5.601562 -66.234375 4.78125 -66.234375 C 4.425781 -66.234375 4.128906 -66.410156 3.890625 -66.765625 C 4.015625 -67.234375 4.722656 -67.765625 6.015625 -68.359375 Z M 66.765625 -56.671875 C 66.878906 -56.316406 66.816406 -56.078125 66.578125 -55.953125 L 65.171875 -55.953125 L 65.515625 -56.671875 Z M 63.046875 -51 C 62.921875 -50.882812 62.742188 -50.828125 62.515625 -50.828125 C 62.515625 -51.054688 62.335938 -51.234375 61.984375 -51.359375 C 62.210938 -51.359375 62.328125 -51.414062 62.328125 -51.53125 L 62.6875 -51.53125 C 63.039062 -51.53125 63.273438 -51.472656 63.390625 -51.359375 Z M 59.671875 -37.71875 L 60.203125 -38.078125 L 60.203125 -37.71875 L 59.671875 -37.359375 Z M 62.15625 -35.953125 L 62.6875 -35.953125 L 62.515625 -35.234375 L 61.984375 -35.234375 Z M 50.828125 -30.28125 C 50.941406 -29.925781 50.941406 -29.691406 50.828125 -29.578125 L 49.234375 -29.578125 L 49.578125 -30.28125 Z M 40.015625 -27.984375 C 39.660156 -27.273438 39.394531 -26.859375 39.21875 -26.734375 C 39.039062 -26.617188 38.660156 -26.5625 38.078125 -26.5625 L 37.1875 -26.5625 C 36.476562 -26.5625 36.003906 -26.914062 35.765625 -27.625 C 35.765625 -27.738281 35.941406 -27.972656 36.296875 -28.328125 C 37.128906 -28.328125 37.78125 -28.296875 38.25 -28.234375 C 38.71875 -28.179688 39.070312 -28.15625 39.3125 -28.15625 Z M 44.625 -27.625 L 44.796875 -28.15625 L 45.328125 -27.984375 L 44.984375 -27.453125 Z M 44.453125 -21.78125 L 44.625 -24.96875 L 45.15625 -24.96875 L 44.625 -21.78125 Z M 32.578125 -23.203125 C 32.578125 -23.316406 32.816406 -23.609375 33.296875 -24.078125 C 33.296875 -24.078125 33.472656 -23.957031 33.828125 -23.71875 C 34.179688 -23.488281 34.472656 -23.140625 34.703125 -22.671875 L 32.765625 -22.484375 Z M 32.578125 -23.203125 "/></g></g></g><g fill="#fbfaf9" fill-opacity="1"><g transform="translate(195.458606, 258.374983)"><g><path d="M 82.875 -63.21875 L 82.875 -62.6875 L 83.046875 -62.6875 C 82.691406 -57.132812 81.867188 -50.878906 80.578125 -43.921875 L 80.046875 -44.453125 C 79.691406 -44.804688 79.515625 -45.039062 79.515625 -45.15625 L 77.921875 -45.15625 L 77.734375 -44.625 L 77.734375 -44.453125 C 78.210938 -44.453125 78.507812 -44.390625 78.625 -44.265625 L 79.6875 -44.265625 C 79.6875 -44.035156 79.984375 -43.800781 80.578125 -43.5625 L 79.328125 -38.421875 L 78.265625 -38.421875 L 78.265625 -38.25 L 79.328125 -38.25 C 79.210938 -37.425781 78.921875 -36.484375 78.453125 -35.421875 C 78.328125 -35.179688 78.175781 -35.085938 78 -35.140625 C 77.820312 -35.203125 77.734375 -35.175781 77.734375 -35.0625 L 78.265625 -34.703125 C 76.265625 -29.160156 74.257812 -24.675781 72.25 -21.25 L 72.078125 -21.25 L 71.015625 -20.359375 L 71.359375 -19.828125 L 68.890625 -16.46875 C 60.742188 -5.488281 50 0 36.65625 0 C 24.613281 0 15.109375 -4.78125 8.140625 -14.34375 L 8.140625 -14.703125 L 7.796875 -14.703125 C 7.203125 -15.523438 6.90625 -15.992188 6.90625 -16.109375 C 3.476562 -21.421875 1.054688 -27.441406 -0.359375 -34.171875 L -0.171875 -34.53125 C -0.171875 -34.769531 -0.113281 -34.945312 0 -35.0625 C 0 -35.300781 -0.175781 -35.476562 -0.53125 -35.59375 L -0.53125 -35.234375 C -1.125 -38.546875 -1.535156 -42.382812 -1.765625 -46.75 C -1.296875 -47.695312 -0.882812 -49.46875 -0.53125 -52.0625 L -0.171875 -52.765625 L -0.171875 -53.828125 C -0.296875 -54.179688 -0.359375 -54.597656 -0.359375 -55.078125 L -0.359375 -56.3125 C -0.472656 -56.425781 -0.53125 -56.660156 -0.53125 -57.015625 L -0.53125 -60.5625 C -0.53125 -61.15625 -0.472656 -61.566406 -0.359375 -61.796875 C -0.359375 -62.390625 -0.472656 -62.921875 -0.703125 -63.390625 C -0.703125 -63.515625 -0.820312 -63.691406 -1.0625 -63.921875 C -0.820312 -66.640625 -0.585938 -68.410156 -0.359375 -69.234375 C 3.421875 -93.316406 11.6875 -109.90625 24.4375 -119 C 30.570312 -123.125 37.179688 -125.1875 44.265625 -125.1875 C 51.828125 -125.1875 58.441406 -123.414062 64.109375 -119.875 C 69.773438 -116.332031 74.023438 -111.671875 76.859375 -105.890625 C 81.222656 -96.441406 83.40625 -85.582031 83.40625 -73.3125 C 83.40625 -68.945312 83.285156 -65.582031 83.046875 -63.21875 Z M 52.234375 -119 C 51.878906 -118.644531 51.703125 -118.347656 51.703125 -118.109375 C 52.054688 -117.640625 52.410156 -117.40625 52.765625 -117.40625 L 54.359375 -117.578125 L 55.609375 -117.9375 L 55.25 -118.28125 L 55.25 -118.46875 C 54.894531 -118.46875 54.660156 -118.523438 54.546875 -118.640625 L 53.828125 -118.640625 C 53.472656 -118.640625 52.941406 -118.757812 52.234375 -119 Z M 52.59375 -117.046875 C 51.53125 -116.804688 50.878906 -116.453125 50.640625 -115.984375 C 51.234375 -115.742188 51.53125 -115.445312 51.53125 -115.09375 C 51.644531 -114.625 52.175781 -114.390625 53.125 -114.390625 C 53.59375 -114.390625 53.710938 -114.507812 53.484375 -114.75 C 53.128906 -114.976562 53.242188 -115.269531 53.828125 -115.625 C 54.421875 -115.625 54.832031 -115.65625 55.0625 -115.71875 C 55.300781 -115.78125 55.484375 -115.8125 55.609375 -115.8125 C 55.960938 -115.8125 56.140625 -115.925781 56.140625 -116.15625 L 56.3125 -116.6875 C 56.78125 -116.925781 57.132812 -117.046875 57.375 -117.046875 C 57.726562 -117.046875 58.082031 -117.28125 58.4375 -117.75 C 58.4375 -117.875 58.203125 -117.9375 57.734375 -117.9375 C 57.253906 -117.9375 56.898438 -118.050781 56.671875 -118.28125 C 56.546875 -118.164062 56.484375 -117.929688 56.484375 -117.578125 C 56.484375 -117.335938 56.425781 -117.160156 56.3125 -117.046875 C 56.195312 -117.046875 55.960938 -116.867188 55.609375 -116.515625 C 55.253906 -116.160156 54.898438 -115.984375 54.546875 -115.984375 L 54.015625 -115.984375 L 53.65625 -115.8125 C 53.300781 -115.6875 53.003906 -115.710938 52.765625 -115.890625 C 52.535156 -116.066406 52.476562 -116.273438 52.59375 -116.515625 Z M 30.640625 -116.875 C 31.347656 -116.875 31.757812 -116.8125 31.875 -116.6875 C 31.875 -116.6875 31.898438 -116.65625 31.953125 -116.59375 C 32.015625 -116.539062 32.046875 -116.515625 32.046875 -116.515625 C 32.046875 -116.273438 32.109375 -116.15625 32.234375 -116.15625 L 32.765625 -115.984375 L 33.46875 -116.34375 C 33.46875 -116.34375 33.4375 -116.367188 33.375 -116.421875 C 33.320312 -116.484375 33.296875 -116.515625 33.296875 -116.515625 L 33.109375 -116.875 Z M 36.484375 -116.15625 L 37.359375 -116.15625 L 38.25 -116.875 L 36.484375 -116.875 Z M 48.34375 -116.15625 L 49.578125 -116.15625 L 49.578125 -116.515625 L 48.34375 -116.515625 Z M 60.03125 -115.625 L 60.921875 -115.625 L 60.921875 -115.984375 L 60.03125 -115.984375 Z M 39.671875 -114.75 C 39.191406 -114.75 38.953125 -115.039062 38.953125 -115.625 L 37.890625 -115.625 L 37.890625 -115.453125 L 37.71875 -115.453125 L 37.71875 -115.28125 C 37.957031 -114.6875 38.367188 -114.390625 38.953125 -114.390625 C 39.191406 -114.390625 39.429688 -114.507812 39.671875 -114.75 Z M 52.765625 -57.015625 C 52.765625 -57.015625 52.796875 -57.046875 52.859375 -57.109375 C 52.921875 -57.171875 52.953125 -57.203125 52.953125 -57.203125 C 53.304688 -57.203125 53.484375 -57.257812 53.484375 -57.375 L 53.828125 -58.078125 C 53.359375 -58.316406 53.003906 -58.4375 52.765625 -58.4375 C 53.472656 -67.050781 53.769531 -74.785156 53.65625 -81.640625 C 53.414062 -85.765625 53.003906 -89.363281 52.421875 -92.4375 L 52.59375 -92.4375 L 52.765625 -92.25 L 53.828125 -92.25 C 53.828125 -92.601562 53.710938 -92.898438 53.484375 -93.140625 C 52.890625 -92.898438 52.535156 -92.664062 52.421875 -92.4375 C 52.066406 -93.96875 51.59375 -95.382812 51 -96.6875 C 49.820312 -99.519531 48.050781 -100.9375 45.6875 -100.9375 C 44.976562 -100.9375 44.445312 -100.875 44.09375 -100.75 C 41.613281 -100.039062 39.546875 -98.125 37.890625 -95 C 36.242188 -91.875 34.945312 -88.539062 34 -85 C 31.050781 -74.726562 29.578125 -61.679688 29.578125 -45.859375 C 29.578125 -36.773438 31.285156 -31.171875 34.703125 -29.046875 C 35.648438 -28.566406 36.476562 -28.328125 37.1875 -28.328125 C 37.539062 -28.210938 38.070312 -28.15625 38.78125 -28.15625 C 42.914062 -28.15625 46.046875 -31.285156 48.171875 -37.546875 C 50.296875 -43.796875 51.710938 -50.347656 52.421875 -57.203125 Z M 34.171875 -93.140625 L 32.9375 -93.140625 L 33.296875 -92.25 C 33.523438 -92.25 33.878906 -92.367188 34.359375 -92.609375 Z M 57.734375 -82.171875 L 58.4375 -82.515625 L 58.4375 -84.109375 C 57.96875 -84.460938 57.378906 -84.640625 56.671875 -84.640625 C 56.546875 -84.640625 56.484375 -84.523438 56.484375 -84.296875 C 56.484375 -84.054688 56.425781 -83.878906 56.3125 -83.765625 L 55.609375 -83.234375 C 55.128906 -82.992188 54.890625 -82.816406 54.890625 -82.703125 C 54.890625 -82.460938 55.128906 -82.222656 55.609375 -81.984375 L 57.015625 -81.984375 Z M 60.03125 -80.578125 L 60.390625 -80.578125 C 60.503906 -80.691406 60.679688 -80.75 60.921875 -80.75 C 60.921875 -80.75 60.890625 -80.804688 60.828125 -80.921875 C 60.765625 -81.046875 60.675781 -81.109375 60.5625 -81.109375 L 60.03125 -81.453125 Z M 55.25 -71.890625 C 54.539062 -71.890625 54.1875 -71.773438 54.1875 -71.546875 L 54.1875 -71.1875 L 55.25 -71.015625 C 55.488281 -70.890625 55.84375 -70.828125 56.3125 -70.828125 L 56.671875 -71.015625 L 56.671875 -71.359375 C 56.316406 -71.710938 55.84375 -71.890625 55.25 -71.890625 Z M 1.953125 -69.59375 C 1.953125 -69.945312 2.007812 -70.242188 2.125 -70.484375 C 2.125 -70.835938 2.066406 -71.128906 1.953125 -71.359375 C 1.359375 -70.773438 1.0625 -70.363281 1.0625 -70.125 C 1.0625 -70.125 1.179688 -70.003906 1.421875 -69.765625 Z M 59.671875 -71.1875 C 59.671875 -71.300781 59.492188 -71.359375 59.140625 -71.359375 L 58.4375 -71.1875 C 58.675781 -70.945312 58.851562 -70.828125 58.96875 -70.828125 L 59.5 -70.828125 L 59.5 -71.015625 Z M 82.515625 -70.125 C 82.753906 -70.238281 83.050781 -70.296875 83.40625 -70.296875 L 81.640625 -70.65625 L 81.28125 -70.296875 L 81.109375 -69.953125 C 81.335938 -70.066406 81.804688 -70.125 82.515625 -70.125 Z M 61.265625 -68.890625 L 61.796875 -68.890625 L 61.796875 -69.765625 L 61.265625 -69.765625 Z M 54.1875 -68.359375 L 54.1875 -67.828125 C 54.1875 -67.703125 54.304688 -67.640625 54.546875 -67.640625 C 54.546875 -67.640625 54.601562 -67.609375 54.71875 -67.546875 C 54.832031 -67.492188 54.890625 -67.410156 54.890625 -67.296875 C 54.890625 -67.410156 55.1875 -67.585938 55.78125 -67.828125 L 56.671875 -68.359375 L 56.3125 -69.421875 Z M 62.6875 -68.359375 C 62.332031 -68.003906 62.15625 -67.765625 62.15625 -67.640625 L 63.390625 -67.640625 C 63.390625 -68.117188 63.273438 -68.59375 63.046875 -69.0625 C 63.046875 -68.707031 62.925781 -68.472656 62.6875 -68.359375 Z M 1.59375 -68.359375 L 1.234375 -68.359375 L 1.234375 -67.640625 L 1.59375 -67.640625 Z M 69.765625 -65.703125 C 70.242188 -65.703125 70.660156 -65.460938 71.015625 -64.984375 C 71.484375 -65.460938 71.484375 -65.878906 71.015625 -66.234375 C 70.773438 -65.992188 70.535156 -65.875 70.296875 -65.875 Z M 59.328125 -62.6875 C 59.679688 -63.039062 59.859375 -63.273438 59.859375 -63.390625 C 59.265625 -63.742188 58.96875 -64.21875 58.96875 -64.8125 C 59.082031 -65.164062 58.90625 -65.578125 58.4375 -66.046875 C 58.4375 -66.046875 58.40625 -66.015625 58.34375 -65.953125 C 58.289062 -65.898438 58.203125 -65.875 58.078125 -65.875 L 57.546875 -65.703125 C 57.785156 -65.578125 57.785156 -65.398438 57.546875 -65.171875 L 57.375 -64.453125 L 57.90625 -63.75 C 58.257812 -63.28125 58.734375 -62.925781 59.328125 -62.6875 Z M 54.890625 -64.984375 C 54.890625 -65.222656 54.800781 -65.429688 54.625 -65.609375 C 54.445312 -65.785156 54.300781 -65.875 54.1875 -65.875 C 53.832031 -65.164062 53.832031 -64.753906 54.1875 -64.640625 L 54.546875 -64.8125 Z M 72.78125 -65.515625 C 72.78125 -65.285156 72.835938 -65.109375 72.953125 -64.984375 L 73.3125 -64.640625 C 73.550781 -64.867188 73.671875 -65.160156 73.671875 -65.515625 Z M 62.15625 -64.109375 C 62.269531 -63.984375 62.382812 -63.953125 62.5 -64.015625 C 62.625 -64.078125 62.628906 -64.164062 62.515625 -64.28125 L 62.328125 -64.8125 L 62.15625 -64.28125 Z M 76.328125 -64.453125 L 77.5625 -64.28125 L 77.5625 -64.453125 L 76.328125 -64.8125 Z M 68.890625 -64.109375 C 68.765625 -63.984375 68.671875 -63.890625 68.609375 -63.828125 C 68.554688 -63.773438 68.53125 -63.691406 68.53125 -63.578125 C 68.644531 -63.578125 68.789062 -63.601562 68.96875 -63.65625 C 69.144531 -63.71875 69.472656 -63.75 69.953125 -63.75 C 70.535156 -63.75 70.890625 -63.515625 71.015625 -63.046875 L 69.953125 -61.984375 C 70.890625 -61.628906 71.710938 -61.507812 72.421875 -61.625 C 71.710938 -62.21875 71.597656 -62.570312 72.078125 -62.6875 L 72.953125 -63.390625 L 69.234375 -64.453125 Z M 79.328125 -64.109375 L 81.8125 -64.109375 L 81.8125 -64.453125 L 79.328125 -64.453125 Z M 78.265625 -63.046875 C 78.265625 -62.566406 78.382812 -62.328125 78.625 -62.328125 L 79.6875 -62.515625 L 79.515625 -62.859375 L 79.515625 -63.21875 L 78.796875 -63.046875 Z M 81.640625 -62.15625 C 81.160156 -62.75 80.804688 -62.75 80.578125 -62.15625 Z M 55.25 -59.328125 L 55.953125 -59.140625 C 56.191406 -59.140625 57.375 -59.492188 59.5 -60.203125 L 57.375 -61.265625 L 56.484375 -61.796875 L 55.609375 -62.328125 L 54.890625 -61.984375 C 54.890625 -61.742188 54.773438 -61.390625 54.546875 -60.921875 L 54.546875 -59.5 Z M 74.734375 -61.984375 C 74.253906 -61.984375 73.78125 -61.863281 73.3125 -61.625 C 73.3125 -61.382812 73.488281 -61.148438 73.84375 -60.921875 L 74.734375 -60.921875 L 75.078125 -61.453125 C 75.316406 -61.453125 75.4375 -61.628906 75.4375 -61.984375 Z M 76.5 -61.09375 C 76.382812 -60.738281 76.085938 -60.5625 75.609375 -60.5625 L 75.265625 -60.5625 C 75.265625 -60.675781 75.085938 -60.734375 74.734375 -60.734375 C 74.492188 -60.734375 74.375 -60.675781 74.375 -60.5625 L 73.84375 -60.5625 C 73.25 -60.5625 72.953125 -60.328125 72.953125 -59.859375 C 73.429688 -59.859375 73.726562 -59.972656 73.84375 -60.203125 C 73.957031 -59.972656 74.015625 -59.859375 74.015625 -59.859375 L 74.015625 -59.5 L 71.1875 -58.265625 C 71.1875 -57.429688 71.242188 -56.898438 71.359375 -56.671875 C 71.484375 -56.316406 71.660156 -56.164062 71.890625 -56.21875 C 72.128906 -56.28125 72.25 -56.3125 72.25 -56.3125 L 72.953125 -56.3125 C 73.191406 -56.3125 73.488281 -56.191406 73.84375 -55.953125 L 75.078125 -55.078125 L 74.546875 -54.71875 C 74.429688 -54.71875 74.375 -54.773438 74.375 -54.890625 L 74.015625 -54.890625 C 73.546875 -54.890625 73.191406 -54.773438 72.953125 -54.546875 L 72.078125 -54.1875 L 71.1875 -54.1875 C 71.539062 -53.832031 71.71875 -53.535156 71.71875 -53.296875 C 71.957031 -52.828125 72.132812 -52.535156 72.25 -52.421875 C 72.25 -51.941406 72.484375 -51.703125 72.953125 -51.703125 C 73.429688 -51.585938 74.023438 -51.585938 74.734375 -51.703125 C 74.378906 -51.941406 74.203125 -52.359375 74.203125 -52.953125 L 73.84375 -52.953125 C 73.132812 -52.953125 72.78125 -53.066406 72.78125 -53.296875 L 72.78125 -53.484375 L 74.015625 -53.828125 L 75.078125 -54.015625 C 75.671875 -54.242188 75.96875 -54.421875 75.96875 -54.546875 L 76.859375 -55.078125 C 76.378906 -55.078125 76.023438 -55.253906 75.796875 -55.609375 L 75.796875 -56.3125 L 75.4375 -56.3125 C 75.320312 -56.3125 75.265625 -56.429688 75.265625 -56.671875 C 75.265625 -56.898438 75.320312 -57.078125 75.4375 -57.203125 L 75.96875 -57.546875 L 75.265625 -58.078125 C 74.910156 -58.316406 74.734375 -58.492188 74.734375 -58.609375 C 74.734375 -58.960938 75.265625 -59.140625 76.328125 -59.140625 L 75.609375 -59.671875 C 75.378906 -59.910156 75.265625 -60.085938 75.265625 -60.203125 L 76.140625 -60.203125 C 76.617188 -59.972656 77.328125 -59.914062 78.265625 -60.03125 C 78.265625 -60.269531 78.328125 -60.445312 78.453125 -60.5625 C 78.566406 -60.675781 78.625 -60.851562 78.625 -61.09375 C 78.625 -61.332031 78.382812 -61.539062 77.90625 -61.71875 C 77.4375 -61.894531 77.085938 -61.984375 76.859375 -61.984375 C 76.859375 -61.742188 76.738281 -61.445312 76.5 -61.09375 Z M 68.359375 -59.140625 L 68.703125 -59.140625 L 69.0625 -59.5 L 68.703125 -59.671875 Z M 79.328125 -59.5 C 79.328125 -59.144531 79.625 -58.910156 80.21875 -58.796875 L 80.390625 -59.140625 L 80.578125 -59.328125 Z M 57.375 -57.203125 C 57.613281 -57.203125 57.96875 -57.289062 58.4375 -57.46875 C 58.90625 -57.644531 59.140625 -57.847656 59.140625 -58.078125 C 59.140625 -58.429688 59.082031 -58.609375 58.96875 -58.609375 L 58.609375 -58.796875 L 57.90625 -58.796875 C 56.957031 -58.796875 56.304688 -58.5 55.953125 -57.90625 C 56.304688 -57.4375 56.78125 -57.203125 57.375 -57.203125 Z M 78.984375 -58.265625 L 77.5625 -58.796875 C 77.675781 -57.960938 78.207031 -57.546875 79.15625 -57.546875 C 79.507812 -57.546875 79.6875 -57.609375 79.6875 -57.734375 L 80.046875 -57.734375 Z M 81.984375 -58.4375 L 81.109375 -58.4375 L 81.109375 -58.078125 L 81.984375 -58.078125 Z M 64.28125 -56.84375 L 63.21875 -56.84375 C 63.101562 -56.375 63.28125 -55.960938 63.75 -55.609375 L 64.640625 -55.609375 C 64.640625 -56.078125 64.578125 -56.3125 64.453125 -56.3125 Z M 78.453125 -55.25 C 79.035156 -55.132812 79.390625 -55.132812 79.515625 -55.25 L 79.15625 -56.140625 C 79.15625 -56.367188 78.921875 -56.546875 78.453125 -56.671875 C 77.972656 -56.316406 77.675781 -56.140625 77.5625 -56.140625 C 77.320312 -55.898438 77.203125 -55.722656 77.203125 -55.609375 L 77.5625 -55.421875 L 77.5625 -55.25 Z M 61.453125 -55.78125 C 60.972656 -56.25 60.554688 -56.484375 60.203125 -56.484375 L 60.203125 -55.609375 Z M 66.578125 -55.609375 C 65.867188 -55.253906 65.335938 -54.660156 64.984375 -53.828125 C 64.984375 -53.472656 65.101562 -53.296875 65.34375 -53.296875 L 65.875 -53.296875 C 66.113281 -53.773438 66.171875 -54.128906 66.046875 -54.359375 C 65.816406 -54.597656 66.171875 -54.894531 67.109375 -55.25 C 66.992188 -55.25 66.9375 -55.304688 66.9375 -55.421875 L 66.765625 -55.421875 C 66.765625 -55.421875 66.734375 -55.453125 66.671875 -55.515625 C 66.609375 -55.578125 66.578125 -55.609375 66.578125 -55.609375 Z M 72.421875 -54.890625 C 72.546875 -55.015625 72.546875 -55.253906 72.421875 -55.609375 L 71.1875 -55.609375 L 71.015625 -54.890625 Z M 69.953125 -54.890625 L 69.953125 -55.25 L 68.53125 -55.25 L 68.53125 -54.890625 Z M 56.3125 -55.078125 C 56.070312 -55.078125 55.71875 -54.957031 55.25 -54.71875 L 54.71875 -54.1875 C 56.132812 -54.425781 57.019531 -54.660156 57.375 -54.890625 L 57.015625 -54.890625 C 57.015625 -55.015625 56.78125 -55.078125 56.3125 -55.078125 Z M 19.484375 -53.828125 C 19.710938 -54.066406 19.710938 -54.1875 19.484375 -54.1875 L 19.125 -54.71875 C 19.007812 -54.476562 19.128906 -54.179688 19.484375 -53.828125 Z M 76.859375 -52.0625 C 77.085938 -51.820312 77.347656 -51.613281 77.640625 -51.4375 C 77.941406 -51.257812 78.390625 -51.234375 78.984375 -51.359375 C 78.390625 -51.359375 77.972656 -51.535156 77.734375 -51.890625 C 78.441406 -52.242188 78.617188 -52.597656 78.265625 -52.953125 C 78.035156 -53.179688 77.921875 -53.472656 77.921875 -53.828125 C 77.921875 -53.242188 77.566406 -52.953125 76.859375 -52.953125 L 75.796875 -52.953125 C 75.203125 -52.953125 74.847656 -52.890625 74.734375 -52.765625 C 75.441406 -52.765625 75.910156 -52.707031 76.140625 -52.59375 Z M 81.28125 -52.421875 C 81.394531 -52.421875 81.628906 -52.597656 81.984375 -52.953125 C 81.515625 -53.066406 81.128906 -53.148438 80.828125 -53.203125 C 80.535156 -53.265625 80.507812 -53.296875 80.75 -53.296875 C 80.507812 -53.296875 80.179688 -53.328125 79.765625 -53.390625 C 79.359375 -53.453125 79.507812 -53.242188 80.21875 -52.765625 C 80.457031 -52.535156 80.8125 -52.421875 81.28125 -52.421875 Z M 67.828125 -52.59375 C 67.703125 -52.945312 67.285156 -53.125 66.578125 -53.125 L 66.578125 -52.421875 L 67.46875 -52.0625 L 67.828125 -52.421875 Z M 68.53125 -52.953125 C 68.53125 -52.597656 68.648438 -52.421875 68.890625 -52.421875 C 69.242188 -52.648438 69.421875 -52.828125 69.421875 -52.953125 Z M 59.859375 -51.890625 C 59.617188 -52.117188 59.320312 -52.234375 58.96875 -52.234375 L 59.328125 -51.171875 C 59.679688 -51.410156 59.859375 -51.648438 59.859375 -51.890625 Z M 81.109375 -51.53125 C 81.335938 -51.53125 81.394531 -51.617188 81.28125 -51.796875 C 81.164062 -51.972656 81.046875 -52.0625 80.921875 -52.0625 L 80.75 -51.703125 L 80.578125 -51.359375 L 80.921875 -51.359375 Z M 54.1875 -51.359375 C 54.425781 -50.878906 54.660156 -50.523438 54.890625 -50.296875 C 55.242188 -49.941406 55.71875 -49.765625 56.3125 -49.765625 C 56.90625 -49.765625 57.378906 -49.941406 57.734375 -50.296875 L 57.734375 -51 C 56.898438 -51 56.128906 -51.117188 55.421875 -51.359375 C 54.597656 -51.359375 53.953125 -51.472656 53.484375 -51.703125 L 53.484375 -50.828125 Z M 64.984375 -51 C 64.984375 -50.757812 64.925781 -50.640625 64.8125 -50.640625 L 64.640625 -50.296875 C 64.640625 -49.941406 64.875 -49.703125 65.34375 -49.578125 L 66.234375 -50.296875 C 65.753906 -50.765625 65.335938 -51 64.984375 -51 Z M 1.0625 -50.828125 L 0.703125 -50.828125 L 0.703125 -46.390625 L 1.0625 -46.390625 Z M 69.0625 -49.40625 L 69.0625 -49.9375 L 68.53125 -49.9375 L 68.53125 -49.40625 Z M 72.421875 -48.171875 C 73.015625 -48.171875 73.367188 -48.40625 73.484375 -48.875 C 73.609375 -49.113281 73.726562 -49.289062 73.84375 -49.40625 C 73.957031 -49.519531 74.015625 -49.640625 74.015625 -49.765625 C 73.191406 -49.285156 72.546875 -49.046875 72.078125 -49.046875 L 71.1875 -49.40625 L 70.296875 -49.9375 C 70.296875 -49.9375 70.179688 -49.816406 69.953125 -49.578125 C 69.828125 -49.460938 69.648438 -49.40625 69.421875 -49.40625 L 69.421875 -48.515625 C 70.128906 -48.515625 70.71875 -48.457031 71.1875 -48.34375 C 71.425781 -48.226562 71.835938 -48.171875 72.421875 -48.171875 Z M 53.65625 -48.875 L 53.484375 -48.875 C 53.359375 -48.875 53.296875 -48.753906 53.296875 -48.515625 C 53.421875 -48.515625 53.484375 -48.398438 53.484375 -48.171875 C 53.484375 -48.285156 53.71875 -48.460938 54.1875 -48.703125 Z M 79.328125 -48.703125 L 78.265625 -48.703125 C 78.148438 -48.578125 78.148438 -48.398438 78.265625 -48.171875 L 78.453125 -47.8125 C 78.453125 -47.8125 78.476562 -47.835938 78.53125 -47.890625 C 78.59375 -47.953125 78.625 -47.984375 78.625 -47.984375 L 78.796875 -48.34375 Z M 64.453125 -47.453125 C 65.046875 -47.578125 65.34375 -47.816406 65.34375 -48.171875 C 65.226562 -48.398438 64.816406 -48.515625 64.109375 -48.515625 Z M 77.734375 -48.515625 L 76.5 -48.515625 L 76.5 -48.171875 L 77.734375 -48.171875 Z M 21.609375 -47.640625 C 21.484375 -47.640625 21.421875 -47.550781 21.421875 -47.375 C 21.421875 -47.195312 21.484375 -47.109375 21.609375 -47.109375 Z M 76.671875 -47.109375 C 76.671875 -47.109375 76.640625 -47.132812 76.578125 -47.1875 C 76.523438 -47.25 76.5 -47.28125 76.5 -47.28125 L 76.328125 -47.453125 L 75.796875 -47.109375 Z M 69.421875 -45.6875 C 69.648438 -45.570312 70.0625 -45.515625 70.65625 -45.515625 C 71.007812 -45.515625 71.304688 -45.394531 71.546875 -45.15625 L 71.890625 -46.046875 L 71.71875 -46.75 C 71.71875 -46.988281 71.835938 -47.109375 72.078125 -47.109375 L 71.546875 -47.109375 C 71.773438 -46.398438 71.421875 -46.160156 70.484375 -46.390625 C 70.003906 -46.390625 69.472656 -46.210938 68.890625 -45.859375 Z M 53.484375 -47.109375 C 53.128906 -46.398438 53.128906 -45.628906 53.484375 -44.796875 C 53.835938 -45.035156 54.28125 -45.210938 54.8125 -45.328125 C 55.34375 -45.453125 55.960938 -45.515625 56.671875 -45.515625 C 57.023438 -45.515625 57.257812 -45.453125 57.375 -45.328125 L 58.078125 -45.328125 C 58.785156 -45.328125 59.613281 -45.566406 60.5625 -46.046875 L 60.5625 -46.578125 L 60.390625 -46.75 L 58.4375 -46.75 L 57.015625 -46.921875 L 56.3125 -47.109375 C 55.84375 -47.109375 55.488281 -46.988281 55.25 -46.75 C 54.78125 -46.507812 54.425781 -46.273438 54.1875 -46.046875 C 53.945312 -46.273438 53.710938 -46.390625 53.484375 -46.390625 Z M 64.984375 -46.75 C 64.867188 -46.75 64.570312 -46.75 64.09375 -46.75 C 63.625 -46.75 63.390625 -46.515625 63.390625 -46.046875 C 63.390625 -45.921875 63.421875 -45.828125 63.484375 -45.765625 C 63.546875 -45.710938 63.578125 -45.6875 63.578125 -45.6875 C 63.691406 -45.6875 63.75 -45.566406 63.75 -45.328125 L 65.34375 -45.328125 C 65.457031 -45.210938 65.691406 -45.15625 66.046875 -45.15625 C 66.398438 -45.394531 66.578125 -45.804688 66.578125 -46.390625 Z M 77.03125 -41.078125 C 76.789062 -41.078125 76.4375 -41.316406 75.96875 -41.796875 C 75.613281 -42.148438 75.316406 -42.328125 75.078125 -42.328125 C 74.847656 -42.328125 74.734375 -42.265625 74.734375 -42.140625 L 74.546875 -42.140625 C 73.960938 -42.140625 73.253906 -42.378906 72.421875 -42.859375 L 74.015625 -43.203125 L 75.078125 -43.390625 L 75.265625 -42.5 L 75.96875 -42.5 C 76.320312 -42.5 76.5 -42.554688 76.5 -42.671875 L 76.671875 -42.859375 L 76.671875 -43.390625 C 76.554688 -43.390625 76.378906 -43.445312 76.140625 -43.5625 C 75.910156 -43.675781 75.734375 -43.796875 75.609375 -43.921875 C 75.253906 -43.921875 74.960938 -44.097656 74.734375 -44.453125 C 75.554688 -45.035156 76.085938 -45.328125 76.328125 -45.328125 L 75.078125 -46.390625 C 74.367188 -46.628906 73.660156 -46.691406 72.953125 -46.578125 L 74.546875 -45.328125 C 74.316406 -45.097656 74.140625 -44.984375 74.015625 -44.984375 C 73.785156 -44.859375 73.609375 -44.765625 73.484375 -44.703125 C 73.367188 -44.648438 73.253906 -44.566406 73.140625 -44.453125 L 73.140625 -44.265625 C 73.140625 -43.796875 72.546875 -43.207031 71.359375 -42.5 L 71.015625 -41.96875 C 71.722656 -41.726562 72.429688 -41.609375 73.140625 -41.609375 L 75.265625 -41.078125 L 75.265625 -40.546875 C 75.140625 -40.429688 74.84375 -40.375 74.375 -40.375 C 74.613281 -40.375 74.644531 -40.34375 74.46875 -40.28125 C 74.289062 -40.226562 74.023438 -40.140625 73.671875 -40.015625 C 74.023438 -39.660156 74.554688 -39.484375 75.265625 -39.484375 L 75.609375 -40.015625 Z M 5.671875 -45.6875 L 4.78125 -45.6875 L 4.78125 -45.515625 L 5.671875 -45.328125 Z M 0.53125 -44.625 C 0.644531 -44.863281 0.585938 -45.097656 0.359375 -45.328125 L -0.359375 -45.328125 C -0.585938 -45.328125 -0.703125 -45.210938 -0.703125 -44.984375 C -0.703125 -44.859375 -0.585938 -44.679688 -0.359375 -44.453125 L 0.359375 -44.09375 C 0.359375 -44.332031 0.414062 -44.507812 0.53125 -44.625 Z M 69.953125 -43.203125 L 69.421875 -44.265625 C 69.421875 -44.617188 69.300781 -44.859375 69.0625 -44.984375 C 69.0625 -43.796875 69.117188 -43.144531 69.234375 -43.03125 C 69.359375 -43.144531 69.535156 -43.203125 69.765625 -43.203125 Z M 70.296875 -44.09375 L 72.078125 -44.09375 L 72.421875 -44.265625 C 72.421875 -44.503906 72.539062 -44.625 72.78125 -44.625 C 72.070312 -44.625 71.660156 -44.679688 71.546875 -44.796875 L 70.484375 -44.796875 Z M 8.859375 -44.453125 L 8.5 -44.453125 C 8.5 -44.566406 8.265625 -44.625 7.796875 -44.625 C 7.316406 -44.625 6.957031 -44.382812 6.71875 -43.90625 C 6.488281 -43.4375 6.375 -43.085938 6.375 -42.859375 C 6.375 -42.617188 6.492188 -42.265625 6.734375 -41.796875 L 8.328125 -41.796875 L 8.859375 -42.328125 Z M 67.109375 -38.078125 C 67.109375 -38.078125 67.140625 -38.101562 67.203125 -38.15625 C 67.265625 -38.21875 67.296875 -38.25 67.296875 -38.25 C 67.410156 -38.25 67.46875 -38.425781 67.46875 -38.78125 C 67.46875 -39.132812 67.289062 -39.367188 66.9375 -39.484375 C 66.582031 -39.722656 66.40625 -39.898438 66.40625 -40.015625 C 66.40625 -40.253906 66.582031 -40.550781 66.9375 -40.90625 C 67.289062 -41.257812 67.46875 -41.554688 67.46875 -41.796875 C 67.351562 -42.148438 67.207031 -42.503906 67.03125 -42.859375 C 66.851562 -43.210938 66.703125 -43.445312 66.578125 -43.5625 L 64.640625 -43.5625 L 64.984375 -43.203125 L 64.984375 -42.140625 C 64.984375 -41.785156 64.867188 -41.375 64.640625 -40.90625 C 64.285156 -41.257812 64.109375 -41.613281 64.109375 -41.96875 C 64.109375 -42.207031 63.753906 -42.382812 63.046875 -42.5 C 62.566406 -41.789062 62.390625 -41.082031 62.515625 -40.375 C 62.867188 -40.257812 63.398438 -40.203125 64.109375 -40.203125 C 64.460938 -40.203125 64.992188 -40.082031 65.703125 -39.84375 C 65.347656 -39.375 65.171875 -38.785156 65.171875 -38.078125 C 65.878906 -37.953125 66.523438 -37.953125 67.109375 -38.078125 Z M 58.078125 -42.5 L 58.078125 -42.859375 L 57.015625 -42.859375 L 57.015625 -42.5 Z M 58.078125 -41.078125 C 58.554688 -40.722656 59.085938 -40.722656 59.671875 -41.078125 L 59.328125 -41.796875 L 58.609375 -41.265625 Z M 69.59375 -40.734375 L 69.59375 -41.609375 L 69.0625 -41.609375 L 69.0625 -40.734375 Z M 6.375 -41.078125 C 6.257812 -41.078125 6.203125 -40.960938 6.203125 -40.734375 C 6.316406 -40.492188 6.550781 -40.253906 6.90625 -40.015625 L 6.90625 -41.4375 Z M 77.734375 -41.265625 L 77.734375 -40.734375 L 78.09375 -40.734375 L 78.09375 -41.265625 Z M 53.296875 -39.84375 C 53.296875 -39.84375 53.414062 -39.8125 53.65625 -39.75 C 53.894531 -39.695312 54.070312 -39.726562 54.1875 -39.84375 L 53.828125 -40.015625 C 53.597656 -40.015625 53.484375 -40.132812 53.484375 -40.375 Z M 68.890625 -40.375 L 69.234375 -39.3125 C 69.710938 -39.425781 69.953125 -39.660156 69.953125 -40.015625 C 69.710938 -40.015625 69.535156 -40.078125 69.421875 -40.203125 Z M 71.890625 -40.015625 C 72.242188 -40.015625 72.539062 -40.078125 72.78125 -40.203125 C 72.78125 -40.316406 72.601562 -40.375 72.25 -40.375 L 71.1875 -40.375 Z M 6.015625 -38.609375 C 6.015625 -38.367188 6.078125 -38.25 6.203125 -38.25 C 6.429688 -38.25 6.609375 -38.128906 6.734375 -37.890625 C 6.734375 -37.773438 6.757812 -37.65625 6.8125 -37.53125 C 6.875 -37.414062 6.847656 -37.300781 6.734375 -37.1875 C 6.734375 -36.71875 6.789062 -36.484375 6.90625 -36.484375 C 7.019531 -36.597656 7.253906 -36.65625 7.609375 -36.65625 L 7.609375 -37.1875 C 7.023438 -37.539062 6.789062 -37.894531 6.90625 -38.25 C 7.144531 -38.601562 6.96875 -38.898438 6.375 -39.140625 C 6.257812 -39.140625 6.203125 -39.078125 6.203125 -38.953125 Z M 72.078125 -38.78125 C 70.660156 -38.425781 69.597656 -38.25 68.890625 -38.25 L 69.234375 -38.078125 L 69.765625 -37.71875 C 70.117188 -38.3125 70.472656 -38.488281 70.828125 -38.25 C 71.179688 -37.894531 71.710938 -37.894531 72.421875 -38.25 L 72.25 -38.609375 Z M 66.9375 -36.484375 C 66.695312 -36.710938 66.398438 -36.828125 66.046875 -36.828125 C 65.816406 -36.597656 65.703125 -36.484375 65.703125 -36.484375 C 65.703125 -36.484375 65.582031 -36.363281 65.34375 -36.125 C 65.101562 -35.882812 64.867188 -35.765625 64.640625 -35.765625 L 63.578125 -36.125 L 63.578125 -36.65625 C 64.398438 -36.894531 64.8125 -37.070312 64.8125 -37.1875 L 64.8125 -37.890625 L 63.75 -37.890625 C 63.28125 -37.890625 62.867188 -37.832031 62.515625 -37.71875 C 62.160156 -37.601562 61.804688 -37.484375 61.453125 -37.359375 L 61.453125 -36.125 L 61.625 -35.0625 L 62.6875 -35.0625 C 63.28125 -35.0625 64.164062 -35.296875 65.34375 -35.765625 C 65.8125 -35.296875 66.34375 -35.0625 66.9375 -35.0625 Z M 70.484375 -37.1875 L 70.484375 -36.828125 L 71.359375 -36.828125 L 71.359375 -37.1875 Z M 76.5 -34.53125 L 75.609375 -34.703125 C 75.140625 -34.703125 74.847656 -34.765625 74.734375 -34.890625 C 74.734375 -35.359375 74.910156 -35.769531 75.265625 -36.125 C 74.554688 -35.882812 74.140625 -35.765625 74.015625 -35.765625 C 73.660156 -35.765625 73.128906 -35.648438 72.421875 -35.421875 L 72.421875 -34.359375 L 74.546875 -34.359375 Z M 6.375 -35.234375 C 6.257812 -35.117188 6.203125 -34.941406 6.203125 -34.703125 C 6.203125 -34.347656 6.289062 -33.9375 6.46875 -33.46875 C 6.644531 -33 6.910156 -32.585938 7.265625 -32.234375 L 6.734375 -31.875 C 6.734375 -31.875 6.703125 -31.84375 6.640625 -31.78125 C 6.578125 -31.726562 6.546875 -31.703125 6.546875 -31.703125 L 6.90625 -31.515625 C 7.019531 -31.640625 7.253906 -31.703125 7.609375 -31.703125 L 7.609375 -33.828125 C 7.734375 -34.179688 7.765625 -34.535156 7.703125 -34.890625 C 7.640625 -35.242188 7.609375 -35.535156 7.609375 -35.765625 L 6.90625 -35.765625 L 6.734375 -35.421875 Z M 63.21875 -33.640625 C 62.75 -33.992188 62.160156 -34.347656 61.453125 -34.703125 L 61.453125 -34 L 61.984375 -33.640625 Z M 74.203125 -33.109375 C 74.078125 -33.109375 73.957031 -33.140625 73.84375 -33.203125 C 73.726562 -33.265625 73.550781 -33.296875 73.3125 -33.296875 C 73.195312 -33.410156 72.898438 -33.46875 72.421875 -33.46875 L 73.3125 -32.578125 C 73.550781 -32.816406 73.726562 -32.9375 73.84375 -32.9375 Z M 72.25 -32.40625 C 72.25 -32.519531 72.128906 -32.664062 71.890625 -32.84375 C 71.660156 -33.019531 71.425781 -33.109375 71.1875 -33.109375 L 71.015625 -32.40625 Z M 57.375 -31.34375 L 57.015625 -31.515625 L 57.015625 -30.640625 C 57.492188 -30.640625 57.734375 -30.875 57.734375 -31.34375 Z M 73.671875 -29.046875 C 73.191406 -29.398438 72.953125 -29.753906 72.953125 -30.109375 C 72.722656 -30.109375 72.609375 -29.929688 72.609375 -29.578125 L 72.421875 -29.046875 Z M 6.90625 -29.21875 L 6.90625 -28.515625 C 7.144531 -28.742188 7.265625 -28.859375 7.265625 -28.859375 C 7.492188 -29.097656 7.609375 -29.21875 7.609375 -29.21875 Z M 71.1875 -26.921875 C 71.1875 -27.273438 71.304688 -27.566406 71.546875 -27.796875 C 71.421875 -27.921875 71.066406 -27.984375 70.484375 -27.984375 L 69.421875 -27.984375 L 70.296875 -27.453125 C 70.648438 -27.328125 70.945312 -27.148438 71.1875 -26.921875 Z M 7.265625 -18.234375 C 7.265625 -18.359375 7.46875 -18.566406 7.875 -18.859375 C 8.289062 -19.148438 8.5 -19.359375 8.5 -19.484375 L 8.328125 -20.1875 C 8.203125 -20.1875 8.140625 -20.363281 8.140625 -20.71875 L 7.609375 -20.71875 C 7.492188 -20.601562 7.316406 -20.660156 7.078125 -20.890625 C 7.316406 -21.128906 7.613281 -21.25 7.96875 -21.25 C 8.207031 -22.425781 8.328125 -23.664062 8.328125 -24.96875 C 7.492188 -25.320312 7.078125 -25.554688 7.078125 -25.671875 L 7.078125 -26.5625 C 7.078125 -26.914062 7.019531 -27.148438 6.90625 -27.265625 L 6.734375 -24.078125 C 7.085938 -24.078125 7.378906 -23.960938 7.609375 -23.734375 C 7.023438 -23.378906 6.671875 -23.140625 6.546875 -23.015625 C 6.429688 -22.898438 6.375 -22.546875 6.375 -21.953125 L 6.546875 -21.078125 C 6.785156 -20.597656 6.90625 -20.125 6.90625 -19.65625 L 7.796875 -19.296875 L 7.078125 -18.953125 L 6.90625 -18.59375 L 7.078125 -18.421875 C 7.078125 -18.421875 7.109375 -18.390625 7.171875 -18.328125 C 7.234375 -18.265625 7.265625 -18.234375 7.265625 -18.234375 Z M 70.65625 -26.921875 C 70.539062 -27.035156 70.066406 -27.09375 69.234375 -27.09375 L 69.421875 -26.734375 L 69.765625 -26.203125 L 70.484375 -26.390625 Z M 68 -26.390625 L 67.640625 -26.390625 L 67.296875 -25.859375 L 67.640625 -25.671875 Z M 72.953125 -25.5 L 72.078125 -25.5 L 72.078125 -24.96875 L 72.953125 -24.96875 Z M 63.390625 -24.078125 C 63.628906 -23.847656 64.046875 -23.734375 64.640625 -23.734375 C 64.992188 -23.734375 65.226562 -23.789062 65.34375 -23.90625 L 65.875 -23.90625 L 65.515625 -24.796875 C 64.578125 -24.554688 63.867188 -24.316406 63.390625 -24.078125 Z M 58.265625 -19.828125 C 58.617188 -19.953125 59.117188 -20.160156 59.765625 -20.453125 C 60.410156 -20.742188 60.851562 -21.066406 61.09375 -21.421875 C 60.5 -22.015625 59.734375 -22.488281 58.796875 -22.84375 L 57.015625 -23.375 C 56.785156 -23.488281 56.671875 -23.722656 56.671875 -24.078125 L 56.3125 -24.4375 L 55.953125 -24.609375 L 55.609375 -24.609375 C 54.898438 -24.609375 54.546875 -24.375 54.546875 -23.90625 C 54.546875 -23.550781 54.425781 -23.140625 54.1875 -22.671875 C 54.425781 -22.429688 54.601562 -22.3125 54.71875 -22.3125 C 54.832031 -22.070312 55.007812 -21.953125 55.25 -21.953125 C 55.488281 -21.484375 55.609375 -21.25 55.609375 -21.25 L 55.609375 -20.890625 C 56.078125 -20.660156 56.578125 -20.425781 57.109375 -20.1875 C 57.640625 -19.945312 58.023438 -19.828125 58.265625 -19.828125 Z M 25.328125 -18.953125 C 26.035156 -18.953125 26.65625 -19.1875 27.1875 -19.65625 C 27.71875 -20.125 27.984375 -20.65625 27.984375 -21.25 C 27.984375 -21.601562 27.832031 -21.894531 27.53125 -22.125 C 27.238281 -22.363281 26.972656 -22.484375 26.734375 -22.484375 C 26.859375 -22.609375 26.921875 -23.023438 26.921875 -23.734375 L 26.03125 -23.734375 C 24.726562 -23.253906 23.753906 -22.804688 23.109375 -22.390625 C 22.460938 -21.984375 22.195312 -21.367188 22.3125 -20.546875 C 22.78125 -20.546875 23.253906 -20.304688 23.734375 -19.828125 C 23.847656 -19.828125 24.023438 -19.710938 24.265625 -19.484375 C 24.617188 -19.128906 24.972656 -18.953125 25.328125 -18.953125 Z M 66.578125 -23.015625 L 66.40625 -23.015625 C 66.050781 -23.015625 65.875 -23.078125 65.875 -23.203125 L 65.34375 -23.375 L 64.453125 -23.203125 C 64.453125 -23.078125 64.335938 -23.015625 64.109375 -23.015625 L 63.75 -23.015625 C 63.75 -23.015625 63.925781 -22.835938 64.28125 -22.484375 L 64.640625 -21.953125 L 64.640625 -21.421875 C 64.515625 -21.421875 64.453125 -21.304688 64.453125 -21.078125 L 65.875 -21.078125 C 66.34375 -21.429688 66.578125 -21.898438 66.578125 -22.484375 Z M 8.328125 -17.890625 L 7.96875 -18.0625 L 7.265625 -18.0625 C 7.265625 -17.945312 7.144531 -17.890625 6.90625 -17.890625 L 6.90625 -16.828125 L 7.4375 -16.828125 C 7.4375 -16.941406 7.554688 -17 7.796875 -17 L 8.328125 -17.171875 Z M 47.453125 -15.9375 L 47.109375 -16.296875 L 45.859375 -16.296875 C 45.035156 -16.296875 43.972656 -15.820312 42.671875 -14.875 L 45.859375 -14.515625 L 46.578125 -14.875 C 46.929688 -14.875 47.222656 -14.992188 47.453125 -15.234375 Z M 57.015625 -14.875 C 57.253906 -14.875 57.492188 -14.753906 57.734375 -14.515625 L 58.4375 -15.046875 L 58.078125 -16.109375 L 57.203125 -15.578125 C 56.847656 -15.578125 56.671875 -15.460938 56.671875 -15.234375 C 56.671875 -14.992188 56.785156 -14.875 57.015625 -14.875 Z M 45.859375 -13.28125 C 45.628906 -13.28125 45.515625 -13.335938 45.515625 -13.453125 L 44.984375 -13.453125 C 44.390625 -13.335938 44.09375 -13.101562 44.09375 -12.75 C 44.09375 -12.394531 44.148438 -12.21875 44.265625 -12.21875 C 44.265625 -12.101562 44.328125 -12.101562 44.453125 -12.21875 L 45.15625 -12.390625 L 45.859375 -12.390625 Z M 31.34375 -12.75 C 31.226562 -12.75 31.171875 -12.867188 31.171875 -13.109375 L 30.453125 -12.75 C 30.691406 -12.507812 30.988281 -12.390625 31.34375 -12.390625 Z M 58.609375 -10.984375 C 58.847656 -11.335938 58.847656 -11.628906 58.609375 -11.859375 L 58.078125 -11.515625 Z M 56.671875 -10.453125 C 57.023438 -11.035156 56.90625 -11.445312 56.3125 -11.6875 L 55.609375 -11.6875 C 55.128906 -11.6875 54.890625 -11.453125 54.890625 -10.984375 C 54.890625 -10.742188 55.007812 -10.625 55.25 -10.625 L 55.609375 -10.265625 C 55.722656 -10.390625 56.078125 -10.453125 56.671875 -10.453125 Z M 45.6875 -9.5625 L 45.15625 -9.921875 L 44.625 -9.921875 C 44.03125 -9.921875 43.617188 -9.679688 43.390625 -9.203125 C 44.097656 -8.734375 44.628906 -8.5 44.984375 -8.5 L 45.6875 -8.859375 Z M 45.6875 -9.5625 "/></g></g></g><g clip-path="url(#93e31b1411)"><path fill="#d5e0ff" d="M 20.160156 170.632812 L 354.777344 170.632812 L 354.777344 203.058594 L 20.160156 203.058594 Z M 20.160156 170.632812 " fill-opacity="1" fill-rule="nonzero"/></g><g fill="#ffffff" fill-opacity="1"><g transform="translate(81.780563, 191.624987)"><g><path d="M 8.515625 -8.671875 L 8.515625 -3.59375 C 8.515625 -2.457031 8.175781 -1.5625 7.5 -0.90625 C 6.832031 -0.257812 5.910156 0.0625 4.734375 0.0625 C 3.566406 0.0625 2.644531 -0.257812 1.96875 -0.90625 C 1.300781 -1.5625 0.96875 -2.457031 0.96875 -3.59375 L 0.96875 -8.671875 L 2.421875 -8.671875 L 2.421875 -3.59375 C 2.421875 -2.863281 2.628906 -2.289062 3.046875 -1.875 C 3.472656 -1.457031 4.046875 -1.25 4.765625 -1.25 C 5.472656 -1.25 6.03125 -1.453125 6.4375 -1.859375 C 6.84375 -2.273438 7.046875 -2.851562 7.046875 -3.59375 L 7.046875 -8.671875 Z M 8.515625 -8.671875 "/></g></g></g><g fill="#ffffff" fill-opacity="1"><g transform="translate(101.167062, 191.624987)"><g><path d="M 7.71875 -7.625 L 2.4375 -1.3125 L 7.78125 -1.3125 L 7.78125 0 L 0.453125 0 L 0.453125 -1.046875 L 5.75 -7.359375 L 0.625 -7.359375 L 0.625 -8.671875 L 7.71875 -8.671875 Z M 7.71875 -7.625 "/></g></g></g><g fill="#ffffff" fill-opacity="1"><g transform="translate(119.339652, 191.624987)"><g><path d="M 7.328125 -7.359375 L 2.609375 -7.359375 L 2.609375 -5.015625 L 6.84375 -5.015625 L 6.84375 -3.703125 L 2.609375 -3.703125 L 2.609375 -1.3125 L 7.484375 -1.3125 L 7.484375 0 L 1.140625 0 L 1.140625 -8.671875 L 7.328125 -8.671875 Z M 7.328125 -7.359375 "/></g></g></g><g fill="#ffffff" fill-opacity="1"><g transform="translate(137.388374, 191.624987)"><g><path d="M 7.71875 -7.625 L 2.4375 -1.3125 L 7.78125 -1.3125 L 7.78125 0 L 0.453125 0 L 0.453125 -1.046875 L 5.75 -7.359375 L 0.625 -7.359375 L 0.625 -8.671875 L 7.71875 -8.671875 Z M 7.71875 -7.625 "/></g></g></g><g fill="#ffffff" fill-opacity="1"><g transform="translate(155.560961, 191.624987)"><g><path d="M 2.609375 0 L 1.140625 0 L 1.140625 -8.671875 L 2.609375 -8.671875 Z M 2.609375 0 "/></g></g></g><g fill="#ffffff" fill-opacity="1"><g transform="translate(169.224748, 191.624987)"><g/></g></g><g fill="#ffffff" fill-opacity="1"><g transform="translate(182.343522, 191.624987)"><g><path d="M 1.75 -7.4375 C 2.632812 -8.28125 3.722656 -8.703125 5.015625 -8.703125 C 6.316406 -8.703125 7.40625 -8.28125 8.28125 -7.4375 C 9.164062 -6.601562 9.609375 -5.566406 9.609375 -4.328125 C 9.609375 -3.097656 9.164062 -2.054688 8.28125 -1.203125 C 7.40625 -0.359375 6.316406 0.0625 5.015625 0.0625 C 3.722656 0.0625 2.632812 -0.359375 1.75 -1.203125 C 0.863281 -2.054688 0.421875 -3.097656 0.421875 -4.328125 C 0.421875 -5.566406 0.863281 -6.601562 1.75 -7.4375 Z M 5.03125 -7.390625 C 4.164062 -7.390625 3.425781 -7.09375 2.8125 -6.5 C 2.207031 -5.914062 1.90625 -5.191406 1.90625 -4.328125 C 1.90625 -3.472656 2.210938 -2.742188 2.828125 -2.140625 C 3.441406 -1.546875 4.175781 -1.25 5.03125 -1.25 C 5.882812 -1.25 6.609375 -1.546875 7.203125 -2.140625 C 7.804688 -2.742188 8.109375 -3.472656 8.109375 -4.328125 C 8.109375 -5.191406 7.804688 -5.914062 7.203125 -6.5 C 6.609375 -7.09375 5.882812 -7.390625 5.03125 -7.390625 Z M 5.03125 -7.390625 "/></g></g></g><g fill="#ffffff" fill-opacity="1"><g transform="translate(202.299808, 191.624987)"><g><path d="M 5 0 L 3.5 0 L 0.03125 -8.671875 L 1.609375 -8.671875 L 4.28125 -1.625 L 6.984375 -8.671875 L 8.515625 -8.671875 Z M 5 0 "/></g></g></g><g fill="#ffffff" fill-opacity="1"><g transform="translate(220.769678, 191.624987)"><g><path d="M 6.640625 0 L 5.0625 -2.625 C 4.976562 -2.613281 4.84375 -2.609375 4.65625 -2.609375 L 2.609375 -2.609375 L 2.609375 0 L 1.140625 0 L 1.140625 -8.671875 L 4.65625 -8.671875 C 5.757812 -8.671875 6.617188 -8.410156 7.234375 -7.890625 C 7.847656 -7.378906 8.15625 -6.65625 8.15625 -5.71875 C 8.15625 -5.019531 8 -4.429688 7.6875 -3.953125 C 7.375 -3.472656 6.929688 -3.125 6.359375 -2.90625 L 8.296875 0 Z M 2.609375 -3.921875 L 4.65625 -3.921875 C 6.0625 -3.921875 6.765625 -4.503906 6.765625 -5.671875 C 6.765625 -6.796875 6.0625 -7.359375 4.65625 -7.359375 L 2.609375 -7.359375 Z M 2.609375 -3.921875 "/></g></g></g><g fill="#ffffff" fill-opacity="1"><g transform="translate(239.648308, 191.624987)"><g><path d="M 6.734375 -1.953125 L 2.359375 -1.953125 L 1.53125 0 L 0.015625 0 L 3.84375 -8.671875 L 5.34375 -8.671875 L 9.125 0 L 7.578125 0 Z M 6.1875 -3.265625 L 4.546875 -7.109375 L 2.90625 -3.265625 Z M 6.1875 -3.265625 "/></g></g></g><g fill="#ffffff" fill-opacity="1"><g transform="translate(258.712745, 191.624987)"><g><path d="M 2.609375 0 L 1.140625 0 L 1.140625 -8.671875 L 2.609375 -8.671875 Z M 2.609375 0 "/></g></g></g><g fill="#ffffff" fill-opacity="1"><g transform="translate(272.376532, 191.624987)"><g><path d="M 7.0625 -7.359375 L 4.3125 -7.359375 L 4.3125 0 L 2.84375 0 L 2.84375 -7.359375 L 0.109375 -7.359375 L 0.109375 -8.671875 L 7.0625 -8.671875 Z M 7.0625 -7.359375 "/></g></g></g><g fill="#ffffff" fill-opacity="1"><g transform="translate(289.471475, 191.624987)"><g><path d="M 2.609375 0 L 1.140625 0 L 1.140625 -8.671875 L 2.609375 -8.671875 Z M 2.609375 0 "/></g></g></g></svg>